<svg width="150" height="51" viewBox="0 0 150 51" fill="none" xmlns="http://www.w3.org/2000/svg">
<path fill-rule="evenodd" clip-rule="evenodd" d="M12.8973 0L37.6274 18.8526L37.92 21.0183C40.9495 21.7608 43.2032 23.2731 44.2343 25.5373C47.0683 31.7608 39.5982 41.299 27.5491 46.8416C15.4998 52.3845 3.43445 51.8328 0.600273 45.6093C-1.46382 41.0764 1.93935 34.7852 8.59569 29.5601L12.8973 0ZM16.0527 6.99126L15.3295 11.8816L25.514 18.4824L25.9092 14.4676L16.0527 6.99126ZM15.0878 13.5173L14.1218 20.0486L24.8463 25.2679L25.3482 20.1674L15.0878 13.5173ZM13.8911 21.6097L12.938 28.0558L24.207 31.7624L24.6891 26.8646L13.8911 21.6097ZM12.7143 29.5677L10.8418 42.2306L23.1559 42.4431L24.056 33.2983L12.7143 29.5677ZM24.6582 42.4691L25.6448 42.4862C28.5156 41.1921 31.8731 39.3324 34.7341 36.8108L25.5136 33.7779L24.6582 42.4691ZM35.9633 35.6292L35.6825 32.2149L26.1253 27.5637L25.6648 32.2419L35.9633 35.6292ZM35.5391 30.4717L35.2178 26.5641L26.763 21.0843L26.2825 25.9668L35.5391 30.4717ZM35.0622 24.6707L34.7762 21.1934L27.3095 15.5298L26.9288 19.3993L35.0622 24.6707ZM38.3368 24.1025L39.4155 32.0859C39.046 32.6249 38.6146 33.1743 38.1259 33.7286L36.2264 19.6704L14.0151 2.73817L7.90372 44.7342H19.3594C16.6257 45.5253 14.0539 45.9643 11.8152 46.0446C9.56945 46.1252 7.6756 45.8492 6.31849 45.2097C6.83842 41.6368 7.35835 38.0638 7.87828 34.4911C4.42003 37.8058 2.78293 41.1571 3.87727 43.5603C5.83161 47.8516 15.7517 47.4956 26.0353 42.7652C36.3186 38.0347 43.0702 30.7215 41.1159 26.4302C40.6348 25.3738 39.6701 24.5996 38.3368 24.1025ZM40.2931 38.5808L41.3286 46.2439H29.9032C30.8249 45.7622 31.7155 45.258 32.5719 44.7342H39.613L38.9613 39.9107C39.4281 39.4715 39.8726 39.0276 40.2931 38.5808Z" fill="white"/>
<path d="M53.4 27.008V13.1922H61.2355C64.8534 13.1922 66.9321 15.2843 66.9321 18.1067C66.9321 20.8106 64.7334 22.8238 61.2355 22.8238H57.0979V27.008H53.4ZM61.2355 19.7448C62.4548 19.7448 63.0344 18.9948 63.0344 18.0672C63.0344 17.1396 62.4548 16.3698 61.2355 16.3698H57.0979V19.7448H61.2355Z" fill="white"/>
<path d="M68.2461 27.008V13.1922H80.419V16.3896H71.744V18.4619H79.6394V21.5409H71.744V23.8304H80.7388V27.008H68.2461Z" fill="white"/>
<path d="M90.5256 25.7054L86.2481 18.0277L85.9483 27.008H82.2504L82.6502 13.1922H87.3474L91.465 20.6527H91.6649L95.7825 13.1922H100.48L100.88 27.008H97.1817L96.8819 18.0475L92.6044 25.7054H90.5256Z" fill="white"/>
<path d="M110.707 27.6001C105.73 27.6001 102.192 24.1264 102.192 19.9422C102.192 15.4422 106.13 12.6001 110.707 12.6001C115.284 12.6001 119.222 15.4422 119.222 19.9422C119.222 24.1264 115.684 27.6001 110.707 27.6001ZM110.707 24.2843C113.245 24.2843 115.324 22.4883 115.324 19.9225C115.324 17.3764 113.245 15.8962 110.707 15.8962C108.168 15.8962 106.09 17.3764 106.09 19.9225C106.09 22.4883 108.168 24.2843 110.707 24.2843Z" fill="white"/>
<path d="M120.651 27.008V13.1922H124.349V18.6001H131.484V13.1922H135.182V27.008H131.484V21.8172H124.349V27.008H120.651Z" fill="white"/>
<path d="M135.868 16.3698V13.1922H150V16.3698H144.783V27.008H141.085V16.3698H135.868Z" fill="white"/>
<path d="M76.9349 45.6001C71.9462 45.6001 68.4 42.1264 68.4 37.9422C68.4 33.4422 72.3469 30.6001 76.9349 30.6001C81.5229 30.6001 85.4698 33.4422 85.4698 37.9422C85.4698 42.1264 81.9236 45.6001 76.9349 45.6001ZM76.9349 42.2843C79.4793 42.2843 81.5629 40.4883 81.5629 37.9225C81.5629 35.3764 79.4793 33.8962 76.9349 33.8962C74.3905 33.8962 72.3068 35.3764 72.3068 37.9225C72.3068 40.4883 74.3905 42.2843 76.9349 42.2843Z" fill="white"/>
<path d="M95.8774 43.6659L91.049 38.0409L97.6605 31.1922H101.868L95.3565 37.8435L98.7624 41.554C99.2032 42.0277 99.664 42.2646 100.205 42.2646C100.606 42.2646 101.006 42.1659 101.367 42.0475L101.667 44.929C100.766 45.2646 99.8844 45.4817 99.083 45.4817C97.8208 45.4817 96.8792 44.8304 95.8774 43.6659ZM87.3025 45.008V31.1922H91.0089V45.008H87.3025Z" fill="white"/>
<path d="M110.667 45.6001C105.678 45.6001 102.132 42.1264 102.132 37.9422C102.132 33.4422 106.079 30.6001 110.667 30.6001C115.255 30.6001 119.202 33.4422 119.202 37.9422C119.202 42.1264 115.656 45.6001 110.667 45.6001ZM110.667 42.2843C113.211 42.2843 115.295 40.4883 115.295 37.9225C115.295 35.3764 113.211 33.8962 110.667 33.8962C108.123 33.8962 106.039 35.3764 106.039 37.9225C106.039 40.4883 108.123 42.2843 110.667 42.2843Z" fill="white"/>
<path d="M121.035 45.008V31.1922H124.741V36.6001H131.894V31.1922H135.6V45.008H131.894V39.8172H124.741V45.008H121.035Z" fill="white"/>
</svg>
