<svg width="250" height="85" viewBox="0 0 250 85" fill="none" xmlns="http://www.w3.org/2000/svg">
<path fill-rule="evenodd" clip-rule="evenodd" d="M21.4955 0L62.7123 31.4209L63.2 35.0304C68.2491 36.268 72.0054 38.7886 73.7238 42.5621C78.4471 52.9347 65.997 68.8317 45.9151 78.0693C25.833 87.3075 5.72408 86.388 1.00045 76.0154C-2.4397 68.4606 3.23225 57.9753 14.3261 49.2668L21.4955 0ZM26.7546 11.6521L25.5492 19.8027L42.5234 30.804L43.182 24.1127L26.7546 11.6521ZM25.1463 22.5289L23.5364 33.4144L41.4105 42.1132L42.247 33.6123L25.1463 22.5289ZM23.1519 36.0161L21.5633 46.7597L40.345 52.9373L41.1484 44.7743L23.1519 36.0161ZM21.1904 49.2795L18.0697 70.3843L38.5932 70.7386L40.0933 55.4971L21.1904 49.2795ZM41.097 70.7818L42.7413 70.8103C47.526 68.6535 53.1219 65.554 57.8903 61.3513L42.5227 56.2966L41.097 70.7818ZM59.9388 59.382L59.4708 53.6915L43.5421 45.9394L42.7747 53.7365L59.9388 59.382ZM59.2318 50.7862L58.6964 44.2734L44.605 35.1405L43.8042 43.278L59.2318 50.7862ZM58.437 41.1178L57.9604 35.3223L45.5159 25.8831L44.8813 32.3321L58.437 41.1178ZM63.8947 40.1708L65.6925 53.4765C65.0767 54.3749 64.3577 55.2904 63.5432 56.2144L60.3774 32.784L23.3585 4.56362L13.1729 74.5571H32.2656C27.7096 75.8755 23.4232 76.6072 19.692 76.7411C15.9491 76.8753 12.7927 76.4153 10.5308 75.3495C11.3974 69.3946 12.2639 63.4397 13.1305 57.4852C7.36672 63.0096 4.63822 68.5951 6.46212 72.6005C9.71935 79.7527 26.2529 79.1593 43.3923 71.2753C60.531 63.3911 71.7837 51.2025 68.5265 44.0503C67.7247 42.2897 66.1168 40.9994 63.8947 40.1708ZM67.1553 64.3013L68.881 77.0732H49.8386C51.3748 76.2704 52.8592 75.43 54.2865 74.5571H66.0217L64.9355 66.5178C65.7136 65.7858 66.4543 65.046 67.1553 64.3013Z" fill="#E10029"/>
<path d="M89 45.0132V21.9868H102.059C108.089 21.9868 111.554 25.4737 111.554 30.1776C111.554 34.6842 107.889 38.0395 102.059 38.0395H95.1631V45.0132H89ZM102.059 32.9079C104.091 32.9079 105.057 31.6579 105.057 30.1118C105.057 28.5658 104.091 27.2829 102.059 27.2829H95.1631V32.9079H102.059Z" fill="#E10029"/>
<path d="M113.743 45.0132V21.9868H134.032V27.3158H119.573V30.7697H132.732V35.9013H119.573V39.7171H134.565V45.0132H113.743Z" fill="#E10029"/>
<path d="M150.876 42.8421L143.747 30.0461L143.247 45.0132H137.084L137.75 21.9868H145.579L152.442 34.4211H152.775L159.638 21.9868H167.466L168.133 45.0132H161.969L161.47 30.0789L154.341 42.8421H150.876Z" fill="#E10029"/>
<path d="M184.512 46C176.216 46 170.32 40.2105 170.32 33.2368C170.32 25.7368 176.883 21 184.512 21C192.14 21 198.703 25.7368 198.703 33.2368C198.703 40.2105 192.807 46 184.512 46ZM184.512 40.4737C188.742 40.4737 192.207 37.4803 192.207 33.2039C192.207 28.9605 188.742 26.4934 184.512 26.4934C180.281 26.4934 176.816 28.9605 176.816 33.2039C176.816 37.4803 180.281 40.4737 184.512 40.4737Z" fill="#E10029"/>
<path d="M201.084 45.0132V21.9868H207.248V31H219.141V21.9868H225.304V45.0132H219.141V36.3618H207.248V45.0132H201.084Z" fill="#E10029"/>
<path d="M226.447 27.2829V21.9868H250V27.2829H241.305V45.0132H235.142V27.2829H226.447Z" fill="#E10029"/>
<path d="M128.225 76C119.91 76 114 70.2105 114 63.2368C114 55.7368 120.578 51 128.225 51C135.871 51 142.45 55.7368 142.45 63.2368C142.45 70.2105 136.539 76 128.225 76ZM128.225 70.4737C132.465 70.4737 135.938 67.4803 135.938 63.2039C135.938 58.9605 132.465 56.4934 128.225 56.4934C123.984 56.4934 120.511 58.9605 120.511 63.2039C120.511 67.4803 123.984 70.4737 128.225 70.4737Z" fill="#E10029"/>
<path d="M159.796 72.7763L151.748 63.4013L162.767 51.9868H169.78L158.927 63.0724L164.604 69.2566C165.339 70.0461 166.107 70.4408 167.008 70.4408C167.676 70.4408 168.344 70.2763 168.945 70.0789L169.446 74.8816C167.943 75.4408 166.474 75.8026 165.138 75.8026C163.035 75.8026 161.465 74.7171 159.796 72.7763ZM145.504 75.0132V51.9868H151.682V75.0132H145.504Z" fill="#E10029"/>
<path d="M184.445 76C176.131 76 170.22 70.2105 170.22 63.2368C170.22 55.7368 176.798 51 184.445 51C192.092 51 198.67 55.7368 198.67 63.2368C198.67 70.2105 192.76 76 184.445 76ZM184.445 70.4737C188.686 70.4737 192.159 67.4803 192.159 63.2039C192.159 58.9605 188.686 56.4934 184.445 56.4934C180.204 56.4934 176.732 58.9605 176.732 63.2039C176.732 67.4803 180.204 70.4737 184.445 70.4737Z" fill="#E10029"/>
<path d="M201.724 75.0132V51.9868H207.902V61H219.823V51.9868H226V75.0132H219.823V66.3618H207.902V75.0132H201.724Z" fill="#E10029"/>
</svg>
