<svg width="24" height="24" viewBox="0 0 24 24" fill="none" xmlns="http://www.w3.org/2000/svg">
<path fill-rule="evenodd" clip-rule="evenodd" d="M14.8966 1.24138H9.10345C4.76135 1.24138 1.24138 4.76135 1.24138 9.10345V14.8966C1.24138 19.2387 4.76135 22.7586 9.10345 22.7586H14.8966C19.2387 22.7586 22.7586 19.2387 22.7586 14.8966V9.10345C22.7586 4.76135 19.2387 1.24138 14.8966 1.24138ZM9.10345 0C4.07575 0 0 4.07575 0 9.10345V14.8966C0 19.9242 4.07575 24 9.10345 24H14.8966C19.9242 24 24 19.9242 24 14.8966V9.10345C24 4.07575 19.9242 0 14.8966 0H9.10345Z" fill="#FFA800"/>
<path d="M10.1928 8.97949C9.67421 8.97949 9.25483 9.40188 9.25483 9.92162C9.25483 10.4413 9.67421 10.8637 10.1928 10.8637C10.7115 10.8637 11.1309 10.4413 11.1309 9.92162C11.1309 9.40188 10.7115 8.97949 10.1928 8.97949Z" fill="#FFA800"/>
<path d="M13.991 8.97949C13.4723 8.97949 13.0529 9.40188 13.0529 9.92162C13.0529 10.4413 13.4723 10.8637 13.991 10.8637C14.5096 10.8637 14.929 10.4413 14.929 9.92162C14.929 9.40188 14.5096 8.97949 13.991 8.97949Z" fill="#FFA800"/>
<path d="M9.26139 12.2794C9.10981 12.1841 8.92675 12.1531 8.75236 12.1932C8.57799 12.2333 8.4265 12.3416 8.33134 12.4934L7.1013 14.4707C7.00721 14.6232 6.97712 14.8068 7.01752 14.9814C7.05792 15.156 7.16558 15.3076 7.31714 15.4028C7.46873 15.4981 7.65178 15.5291 7.82617 15.489C8.00054 15.4489 8.15203 15.3406 8.24719 15.1888L8.66713 14.5138C9.60037 15.3715 10.8209 15.8489 12.0894 15.8485C13.3579 15.848 14.578 15.3696 15.5106 14.5113L15.9323 15.1892C16.0275 15.341 16.1788 15.4489 16.3531 15.489C16.5275 15.5291 16.7106 15.4981 16.8622 15.4028C17.0137 15.3076 17.1214 15.156 17.1618 14.9814C17.2022 14.8068 17.1719 14.6228 17.0778 14.4704L15.8478 12.493C15.7526 12.3412 15.6014 12.2333 15.427 12.1932C15.2526 12.1531 15.0695 12.1841 14.918 12.2794C14.7664 12.3746 14.6587 12.5262 14.6183 12.7008C14.5779 12.8754 14.6083 13.0594 14.7023 13.2119L14.7782 13.3338C14.4422 13.6881 14.04 13.9728 13.5944 14.1715C13.1204 14.3828 12.6078 14.4921 12.0893 14.4923C11.5709 14.4926 11.0581 14.3839 10.584 14.1731C10.1381 13.9749 9.73569 13.6906 9.39937 13.3367L9.47724 13.2115C9.57132 13.059 9.60141 12.8754 9.56101 12.7008C9.52061 12.5262 9.41295 12.3746 9.26139 12.2794Z" fill="#FFA800"/>
</svg>
