<svg width="24" height="24" viewBox="0 0 24 24" fill="none" xmlns="http://www.w3.org/2000/svg">
<path fill-rule="evenodd" clip-rule="evenodd" d="M14.8966 1.24138H9.10345C4.76135 1.24138 1.24138 4.76135 1.24138 9.10345V14.8966C1.24138 19.2387 4.76135 22.7586 9.10345 22.7586H14.8966C19.2387 22.7586 22.7586 19.2387 22.7586 14.8966V9.10345C22.7586 4.76135 19.2387 1.24138 14.8966 1.24138ZM9.10345 0C4.07575 0 0 4.07575 0 9.10345V14.8966C0 19.9242 4.07575 24 9.10345 24H14.8966C19.9242 24 24 19.9242 24 14.8966V9.10345C24 4.07575 19.9242 0 14.8966 0H9.10345Z" fill="#FFA800"/>
<path d="M13.3587 14.5887C14.0443 14.4276 14.6986 14.1493 15.2943 13.7656C15.5043 13.6201 15.6509 13.3965 15.7032 13.142C15.7554 12.8875 15.7091 12.6222 15.5742 12.4021C15.4392 12.182 15.2261 12.0244 14.98 11.9627C14.7338 11.901 14.474 11.94 14.2553 12.0714C13.5827 12.5024 12.8057 12.731 12.0128 12.731C11.2198 12.731 10.4428 12.5024 9.77018 12.0714C9.55182 11.9301 9.28779 11.8834 9.03593 11.9415C8.78408 11.9996 8.56491 12.1578 8.42645 12.3814V12.3835C8.35803 12.4945 8.31165 12.6183 8.28994 12.7478C8.26823 12.8773 8.27163 13.0099 8.29995 13.138C8.32826 13.2661 8.38093 13.3873 8.45494 13.4945C8.52895 13.6017 8.62284 13.6928 8.73124 13.7627L8.73285 13.7648C9.32703 14.1486 9.98025 14.4263 10.6648 14.5862L8.80219 16.4976C8.61982 16.6814 8.51587 16.9318 8.51315 17.1941C8.51043 17.4564 8.60916 17.7091 8.78768 17.8968L8.80421 17.9137C8.98926 18.1095 9.23922 18.2067 9.48918 18.2067C9.73914 18.2067 9.98869 18.1095 10.1733 17.9137L12.013 16.0362L13.8417 17.9162C14.2303 18.2973 14.8476 18.2886 15.2217 17.8901C15.3973 17.7036 15.4954 17.4543 15.4954 17.1949C15.4954 16.9355 15.3973 16.6863 15.2217 16.4997L13.3587 14.5887ZM12.0126 11.8C12.8953 11.7994 13.7418 11.4393 14.3661 10.7988C14.9905 10.1582 15.3417 9.28957 15.3427 8.38348C15.3427 6.49977 13.8477 4.96533 12.0126 4.96533C10.1774 4.96533 8.68245 6.49977 8.68245 8.38348C8.68341 9.28976 9.03456 10.1586 9.65885 10.7995C10.2832 11.4404 11.1296 11.8009 12.0126 11.802V11.8ZM12.0126 6.96987C12.3777 6.97009 12.7279 7.11909 12.9861 7.38415C13.2444 7.6492 13.3895 8.00863 13.3898 8.38348C13.3896 8.75862 13.2446 9.11841 12.9864 9.38395C12.7283 9.64949 12.378 9.7991 12.0126 9.79998C11.6469 9.799 11.2965 9.64941 11.0381 9.38396C10.7796 9.1185 10.6341 8.75878 10.6333 8.38348C10.6346 8.00842 10.7803 7.6491 11.0387 7.38389C11.2971 7.11868 11.6472 6.96911 12.0126 6.9678V6.96987Z" fill="#FFA800"/>
</svg>
