<svg width="24" height="24" viewBox="0 0 24 24" fill="none" xmlns="http://www.w3.org/2000/svg">
<path fill-rule="evenodd" clip-rule="evenodd" d="M14.8966 1.24138H9.10345C4.76135 1.24138 1.24138 4.76135 1.24138 9.10345V14.8966C1.24138 19.2387 4.76135 22.7586 9.10345 22.7586H14.8966C19.2387 22.7586 22.7586 19.2387 22.7586 14.8966V9.10345C22.7586 4.76135 19.2387 1.24138 14.8966 1.24138ZM9.10345 0C4.07575 0 0 4.07575 0 9.10345V14.8966C0 19.9242 4.07575 24 9.10345 24H14.8966C19.9242 24 24 19.9242 24 14.8966V9.10345C24 4.07575 19.9242 0 14.8966 0H9.10345Z" fill="#505050"/>
<path d="M13.3587 14.5889C14.0443 14.4278 14.6986 14.1496 15.2943 13.7659C15.5043 13.6204 15.6509 13.3967 15.7032 13.1422C15.7554 12.8878 15.7091 12.6224 15.5742 12.4023C15.4392 12.1822 15.2261 12.0246 14.98 11.9629C14.7338 11.9012 14.474 11.9402 14.2554 12.0717C13.5827 12.5027 12.8057 12.7312 12.0128 12.7312C11.2198 12.7312 10.4428 12.5027 9.77019 12.0717C9.55183 11.9304 9.28781 11.8836 9.03595 11.9417C8.78409 11.9998 8.56493 12.158 8.42646 12.3816V12.3837C8.35805 12.4947 8.31166 12.6186 8.28995 12.748C8.26825 12.8775 8.27165 13.0101 8.29996 13.1383C8.32828 13.2664 8.38095 13.3875 8.45496 13.4947C8.52897 13.6019 8.62286 13.6931 8.73125 13.763L8.73286 13.765C9.32704 14.1488 9.98026 14.4266 10.6648 14.5865L8.80221 16.4979C8.61983 16.6816 8.51589 16.9321 8.51317 17.1944C8.51045 17.4566 8.60917 17.7093 8.78769 17.897L8.80422 17.914C8.98927 18.1097 9.23923 18.207 9.48919 18.207C9.73915 18.207 9.98871 18.1097 10.1734 17.914L12.013 16.0365L13.8417 17.9165C14.2304 18.2976 14.8476 18.2889 15.2217 17.8904C15.3973 17.7038 15.4955 17.4546 15.4955 17.1952C15.4955 16.9358 15.3973 16.6865 15.2217 16.5L13.3587 14.5889ZM12.0126 11.8002C12.8953 11.7997 13.7418 11.4396 14.3662 10.799C14.9905 10.1585 15.3417 9.28981 15.3427 8.38372C15.3427 6.50002 13.8478 4.96558 12.0126 4.96558C10.1774 4.96558 8.68247 6.50002 8.68247 8.38372C8.68343 9.29001 9.03457 10.1589 9.65887 10.7998C10.2832 11.4407 11.1296 11.8012 12.0126 11.8023V11.8002ZM12.0126 6.97012C12.3778 6.97033 12.7279 7.11934 12.9862 7.38439C13.2444 7.64945 13.3896 8.00888 13.3898 8.38372C13.3897 8.75887 13.2446 9.11866 12.9865 9.3842C12.7283 9.64973 12.3781 9.79935 12.0126 9.80022C11.6469 9.79924 11.2966 9.64966 11.0381 9.3842C10.7796 9.11875 10.6341 8.75902 10.6334 8.38372C10.6346 8.00866 10.7804 7.64934 11.0387 7.38413C11.2971 7.11893 11.6472 6.96936 12.0126 6.96805V6.97012Z" fill="#505050"/>
</svg>
