<svg width="20" height="20" viewBox="0 0 20 20" fill="none" xmlns="http://www.w3.org/2000/svg">
<path d="M11.3096 18.3971C9.98771 18.6036 8.63578 18.495 7.36383 18.0803C6.09187 17.6655 4.93583 16.9562 3.98981 16.0102C3.04379 15.0642 2.33453 13.9081 1.91975 12.6362C1.50497 11.3642 1.3964 10.0123 1.60288 8.69045C1.08179 7.6993 0.89138 6.56746 1.05948 5.46037C1.22757 4.35328 1.74536 3.32897 2.53717 2.53717C3.32897 1.74536 4.35328 1.22757 5.46037 1.05948C6.56746 0.89138 7.6993 1.08179 8.69045 1.60288C10.0123 1.3964 11.3642 1.50497 12.6362 1.91975C13.9081 2.33453 15.0642 3.04379 16.0102 3.98981C16.9562 4.93583 17.6655 6.09187 18.0803 7.36383C18.495 8.63578 18.6036 9.98771 18.3971 11.3096C18.9182 12.3007 19.1086 13.4325 18.9405 14.5396C18.7724 15.6467 18.2546 16.671 17.4628 17.4628C16.671 18.2546 15.6467 18.7724 14.5396 18.9405C13.4325 19.1086 12.3007 18.9182 11.3096 18.3971ZM10.053 15.1542H10.013C12.884 15.1542 14.3145 13.7687 14.3145 11.9123C14.3145 10.7148 13.7637 9.44219 11.5895 8.95536L9.60713 8.51551C8.85239 8.34357 7.98569 8.11565 7.98569 7.40089C7.98569 6.68614 8.60548 6.18831 9.7091 6.18831C11.9383 6.18831 11.7354 7.71578 12.839 7.71578C13.4148 7.71578 13.9317 7.3739 13.9317 6.7861C13.9317 5.41657 11.7354 4.38693 9.87704 4.38693C7.85673 4.38693 5.70547 5.24563 5.70547 7.52985C5.70547 8.62747 6.09934 9.79907 8.2646 10.3419L10.9527 11.0127C11.7684 11.2146 11.9703 11.6714 11.9703 12.0843C11.9703 12.771 11.2866 13.4418 10.053 13.4418C7.63681 13.4418 7.97569 11.5855 6.68014 11.5855C6.10034 11.5855 5.67748 11.9833 5.67748 12.5561C5.67748 13.6697 7.02902 15.1542 10.053 15.1542Z" stroke="white"/>
</svg>
