<svg width="24" height="24" viewBox="0 0 24 24" fill="none" xmlns="http://www.w3.org/2000/svg">
<path d="M13.7461 23.1962C11.9836 23.4715 10.181 23.3267 8.4851 22.7737C6.78916 22.2206 5.24778 21.2749 3.98642 20.0136C2.72506 18.7522 1.77937 17.2108 1.22633 15.5149C0.673291 13.819 0.528534 12.0164 0.803841 10.2539C0.109055 8.9324 -0.144827 7.42329 0.0793013 5.94716C0.30343 4.47104 0.993818 3.1053 2.04956 2.04956C3.1053 0.993818 4.47104 0.30343 5.94716 0.0793013C7.42329 -0.144827 8.9324 0.109055 10.2539 0.803841C12.0164 0.528534 13.819 0.673291 15.5149 1.22633C17.2108 1.77937 18.7522 2.72506 20.0136 3.98642C21.2749 5.24778 22.2206 6.78916 22.7737 8.4851C23.3267 10.181 23.4715 11.9836 23.1962 13.7461C23.8909 15.0676 24.1448 16.5767 23.9207 18.0528C23.6966 19.529 23.0062 20.8947 21.9504 21.9504C20.8947 23.0062 19.529 23.6966 18.0528 23.9207C16.5767 24.1448 15.0676 23.8909 13.7461 23.1962ZM12.0706 18.8723H12.0173C15.8453 18.8723 17.7527 17.0249 17.7527 14.5498C17.7527 12.953 17.0183 11.2563 14.1193 10.6071L11.4762 10.0207C10.4699 9.79142 9.31425 9.48753 9.31425 8.53452C9.31425 7.58152 10.1406 6.91774 11.6121 6.91774C14.5844 6.91774 14.3139 8.95438 15.7854 8.95438C16.5531 8.95438 17.2422 8.49853 17.2422 7.7148C17.2422 5.88876 14.3139 4.5159 11.8361 4.5159C9.14231 4.5159 6.27396 5.66084 6.27396 8.70646C6.27396 10.17 6.79912 11.7321 9.68613 12.4558L13.2702 13.3502C14.3579 13.6194 14.6271 14.2286 14.6271 14.779C14.6271 15.6947 13.7154 16.5891 12.0706 16.5891C8.84908 16.5891 9.30093 14.1139 7.57352 14.1139C6.80045 14.1139 6.23664 14.6444 6.23664 15.4082C6.23664 16.893 8.03869 18.8723 12.0706 18.8723Z" fill="#1979B1"/>
</svg>
