<svg width="24" height="24" viewBox="0 0 24 24" fill="none" xmlns="http://www.w3.org/2000/svg">
<path fill-rule="evenodd" clip-rule="evenodd" d="M14.8966 1.24138H9.10345C4.76135 1.24138 1.24138 4.76135 1.24138 9.10345V14.8966C1.24138 19.2387 4.76135 22.7586 9.10345 22.7586H14.8966C19.2387 22.7586 22.7586 19.2387 22.7586 14.8966V9.10345C22.7586 4.76135 19.2387 1.24138 14.8966 1.24138ZM9.10345 0C4.07575 0 0 4.07575 0 9.10345V14.8966C0 19.9242 4.07575 24 9.10345 24H14.8966C19.9242 24 24 19.9242 24 14.8966V9.10345C24 4.07575 19.9242 0 14.8966 0H9.10345Z" fill="#505050"/>
<path fill-rule="evenodd" clip-rule="evenodd" d="M17.1136 9.55183C17.1937 9.29362 17.1136 9.10352 16.7298 9.10352H15.4626C15.1401 9.10352 14.9914 9.26761 14.9108 9.44874C14.9108 9.44874 14.2663 10.9601 13.3534 11.9419C13.058 12.2266 12.9238 12.3169 12.7625 12.3169C12.6819 12.3169 12.5608 12.2266 12.5608 11.9679V9.55183C12.5608 9.2416 12.4719 9.10352 12.2035 9.10352H10.2107C10.0094 9.10352 9.88826 9.24728 9.88826 9.38395C9.88826 9.67762 10.3449 9.74572 10.3918 10.5724V12.3685C10.3918 12.7624 10.3179 12.8338 10.1567 12.8338C9.72702 12.8338 8.68187 11.3153 8.06154 9.57784C7.94134 9.23971 7.81968 9.10352 7.49576 9.10352H6.22758C5.86552 9.10352 5.79311 9.26761 5.79311 9.44874C5.79311 9.77126 6.22275 11.3735 7.7941 13.4926C8.84166 14.9397 10.3165 15.7242 11.6599 15.7242C12.4657 15.7242 12.5651 15.5502 12.5651 15.2499V14.156C12.5651 13.8075 12.6414 13.738 12.8967 13.738C13.085 13.738 13.407 13.8288 14.1591 14.5263C15.0184 15.3534 15.1599 15.7242 15.6436 15.7242H16.9108C17.2729 15.7242 17.4544 15.5502 17.3501 15.2059C17.2352 14.8635 16.8249 14.3665 16.2808 13.7768C15.9854 13.441 15.5422 13.0792 15.4075 12.8981C15.2197 12.6659 15.2733 12.5624 15.4075 12.3557C15.4075 12.3557 16.9523 10.2626 17.1131 9.55183" fill="#505050"/>
</svg>
