<svg width="20" height="20" viewBox="0 0 20 20" fill="none" xmlns="http://www.w3.org/2000/svg">
<path d="M10 1C14.9707 1 19 5.0293 19 9.99999C19 14.9707 14.9707 19 10 19C8.40951 19.0026 6.847 18.5816 5.47301 17.7805L1.00361 19L2.22041 14.5288C1.4186 13.1544 0.997355 11.5912 1.00001 9.99999C1.00001 5.0293 5.02931 1 10 1ZM6.93281 5.77L6.75281 5.7772C6.63628 5.78429 6.52239 5.81491 6.41801 5.8672C6.32038 5.92248 6.23126 5.9916 6.15341 6.0724C6.04541 6.1741 5.98421 6.2623 5.91851 6.3478C5.58562 6.78061 5.40638 7.31198 5.40911 7.858C5.41091 8.29899 5.52611 8.72829 5.70611 9.12969C6.07421 9.94149 6.67991 10.801 7.47911 11.5975C7.67171 11.7892 7.86071 11.9818 8.06411 12.1609C9.05716 13.0352 10.2405 13.6657 11.5201 14.0023L12.0313 14.0806C12.1978 14.0896 12.3643 14.077 12.5317 14.0689C12.7938 14.0554 13.0498 13.9844 13.2814 13.861C13.3993 13.8003 13.5143 13.7342 13.6261 13.663C13.6261 13.663 13.6648 13.6378 13.7386 13.582C13.8601 13.492 13.9348 13.4281 14.0356 13.3228C14.1103 13.2454 14.1751 13.1545 14.2246 13.051C14.2948 12.9043 14.365 12.6244 14.3938 12.3913C14.4154 12.2131 14.4091 12.1159 14.4064 12.0556C14.4028 11.9593 14.3227 11.8594 14.2354 11.8171L13.7116 11.5822C13.7116 11.5822 12.9286 11.2411 12.4498 11.0233C12.3997 11.0014 12.346 10.9889 12.2914 10.9864C12.2298 10.9801 12.1676 10.987 12.1089 11.0067C12.0503 11.0264 11.9965 11.0585 11.9512 11.1007C11.9467 11.0989 11.8864 11.1502 11.2357 11.9386C11.1984 11.9888 11.1469 12.0267 11.0879 12.0475C11.0289 12.0684 10.9651 12.0712 10.9045 12.0556C10.8459 12.0399 10.7884 12.02 10.7326 11.9962C10.621 11.9494 10.5823 11.9314 10.5058 11.899C9.98927 11.6736 9.51103 11.369 9.08831 10.9963C8.97491 10.8973 8.86961 10.7893 8.76161 10.6849C8.40754 10.3458 8.09896 9.9622 7.84361 9.54369L7.79051 9.45819C7.75237 9.40074 7.72153 9.33877 7.69871 9.27369C7.66451 9.14139 7.75361 9.03519 7.75361 9.03519C7.75361 9.03519 7.97231 8.79579 8.07401 8.66619C8.17301 8.54019 8.25671 8.4178 8.31071 8.3305C8.41691 8.1595 8.45021 7.984 8.39441 7.8481C8.14241 7.2325 7.88141 6.6196 7.61321 6.0112C7.56011 5.8906 7.40261 5.8042 7.25951 5.7871C7.21091 5.7817 7.16231 5.7763 7.11371 5.7727C6.99284 5.76669 6.87173 5.76789 6.75101 5.7763L6.93281 5.77Z" stroke="white"/>
</svg>
