<svg width="24" height="24" viewBox="0 0 24 24" fill="none" xmlns="http://www.w3.org/2000/svg">
<path fill-rule="evenodd" clip-rule="evenodd" d="M14.8966 1.24138H9.10345C4.76135 1.24138 1.24138 4.76135 1.24138 9.10345V14.8966C1.24138 19.2387 4.76135 22.7586 9.10345 22.7586H14.8966C19.2387 22.7586 22.7586 19.2387 22.7586 14.8966V9.10345C22.7586 4.76135 19.2387 1.24138 14.8966 1.24138ZM9.10345 0C4.07575 0 0 4.07575 0 9.10345V14.8966C0 19.9242 4.07575 24 9.10345 24H14.8966C19.9242 24 24 19.9242 24 14.8966V9.10345C24 4.07575 19.9242 0 14.8966 0H9.10345Z" fill="#505050"/>
<path d="M15.5695 6.62061H17.4729L13.3143 11.1784L18.2069 17.3792H14.3762L11.3762 13.6179L7.94276 17.3792H6.03828L10.4866 12.504L5.79311 6.6211H9.72104L12.4329 10.059L15.5695 6.62061ZM14.9017 16.2871H15.9564L9.14793 7.65565H8.01621L14.9017 16.2871Z" fill="#505050"/>
</svg>
